<svg xmlns="http://www.w3.org/2000/svg" viewBox="0 0 21.89 21.83"><defs><style>.cls-1{fill:none;stroke:#fff;stroke-linecap:round;stroke-linejoin:round;}</style></defs><title>Asset 1</title><g id="Layer_2" data-name="Layer 2"><g id="Layer_1-2" data-name="Layer 1"><polyline class="cls-1" points="9.79 5.43 16.12 1.78 13.19 5.77 17.91 3.04 14.99 6.95 19.22 4.51 16.02 8.44 20.25 6 16.44 9.51 20.69 7.06 16.61 11.01 21.18 8.38 16.16 13.05 21.39 10.03"/><polyline class="cls-1" points="4 3.12 7.69 0.99 1.4 6.67 12.09 0.5 0.66 9.25 14.76 1.11 0.5 11.19 6.29 7.85 0.68 12.76 5.47 9.99 1.21 14.61 5.54 12.11 1.76 15.88 6.02 13.43 2.55 17.13 6.85 14.65 3.86 18.57 8.5 15.89 5.08 19.54 10.42 16.46 6.82 20.52 21.39 12.11 8.72 21.17 20.97 14.1 11.77 21.33 19.76 16.72"/></g></g></svg>