<svg id="svg" xmlns="http://www.w3.org/2000/svg" xmlns:xlink="http://www.w3.org/1999/xlink" width="400" height="92.9530201342282" viewBox="0, 0, 400,92.9530201342282"><g id="svgg"><path id="path0" d="M41.682 0.345 C 21.902 2.363,6.000 16.254,1.358 35.570 C 0.214 40.327,-0.054 46.604,0.061 65.940 L 0.168 84.060 1.035 85.908 C 4.702 93.725,15.433 93.725,19.100 85.908 L 19.966 84.060 20.156 62.248 C 20.298 45.780,20.451 40.107,20.778 39.094 C 27.907 17.011,55.947 12.942,68.189 32.215 C 71.922 38.091,72.122 39.680,72.136 63.662 C 72.147 82.721,72.175 83.605,72.821 85.333 C 76.036 93.925,88.058 93.925,91.272 85.333 C 92.063 83.219,92.319 45.937,91.581 40.238 C 88.405 15.694,66.092 -2.145,41.682 0.345 M110.722 1.445 C 104.508 3.196,102.462 8.015,103.855 17.617 C 106.500 35.853,120.020 50.873,137.836 55.371 L 139.262 55.731 139.270 69.728 C 139.279 84.958,139.364 85.837,141.091 88.454 C 144.637 93.828,152.346 94.309,156.645 89.425 C 159.049 86.695,159.060 86.602,159.060 70.276 L 159.060 55.772 160.822 55.356 C 179.940 50.844,194.683 32.322,195.032 12.378 C 195.285 -2.079,176.355 -3.010,175.329 11.409 C 174.426 24.104,166.862 33.565,155.442 36.285 C 139.372 40.113,124.529 28.953,123.210 12.052 C 122.591 4.117,117.272 -0.401,110.722 1.445 M214.340 1.368 C 205.150 3.559,203.759 15.836,212.245 19.851 L 214.262 20.805 239.427 20.805 L 264.592 20.805 236.356 49.077 C 220.827 64.627,207.892 77.808,207.612 78.369 C 205.027 83.548,207.643 90.279,213.024 92.292 C 214.806 92.959,215.421 92.968,252.803 92.877 L 290.772 92.785 292.671 91.852 C 298.793 88.846,300.195 80.888,295.449 76.075 C 292.438 73.021,293.814 73.154,265.348 73.154 L 240.453 73.154 268.675 44.883 C 295.534 17.977,296.932 16.517,297.610 14.669 C 299.441 9.677,297.372 4.416,292.671 2.107 L 290.772 1.174 253.188 1.121 C 231.935 1.090,215.055 1.198,214.340 1.368 M349.664 1.349 C 311.701 4.995,294.441 50.788,320.609 78.441 C 344.419 103.602,386.522 94.212,397.483 61.295 C 407.856 30.143,382.382 -1.792,349.664 1.349 M361.242 21.978 C 382.271 28.069,386.666 56.206,368.524 68.601 C 353.155 79.103,331.600 70.032,328.326 51.685 C 324.914 32.563,342.619 16.584,361.242 21.978 " stroke="none" fill="#ffffff" fill-rule="evenodd"></path></g></svg>