<svg xmlns="http://www.w3.org/2000/svg" viewBox="0 0 67.94 25.25"><defs><style>.cls-1{isolation:isolate;}.cls-2{mix-blend-mode:screen;}.cls-3{fill:#f2f2ed;mix-blend-mode:overlay;}</style></defs><title>Asset 4</title><g class="cls-1"><g id="Layer_2" data-name="Layer 2"><g id="Layer_1-2" data-name="Layer 1"><g class="cls-2"><path class="cls-3" d="M67.1,24.76a.86.86,0,0,1-.14-.87c.1.24-.09.3,0,.57.23-.05.35.24.47-.05-.27-.34-.07-.83-.29-1.05-.52.05.36.34-.28.35.12-.16-.09-.47.18-.48-.2,0,0-.31-.2-.35.07.15-.12.06-.17.09s.13-.19,0-.21a1.76,1.76,0,0,1,.42,0c.06-.13-.24-.17-.22-.34.25.13.18-.22.3-.22-.2-.09-.5,0-.54-.17.13.06.28.14.33,0,.49,0,.17.46.47.43,0-.08-.13-.35.14-.26l-.19-.13c.37-.19.14-.39.19-.68s-.5-.2-.5,0c-.13-.22-.24-.1-.22-.33.06,0,.13,0,.18-.07.08-.2-.27,0-.22-.18s.12,0,.17-.08l-.29-.11c.21-.14.36,0,.45.15.13-.19-.19-.32-.08-.44.11,0,0,.12.17.11,0-.35-.32-.29-.44-.58-.22.12.12.23,0,.39l-.39.08c0-.06.24-.16,0-.18l-.16.11c0-.11.27-.27.06-.42l.35-.18c.3,0,.06.23.27.34.15-.17.31.33.48,0,0-.15.08-.29-.09-.4l-.07.1c0-.32-.28-.53-.28-.82-.16-.11-.27.1-.33.13s.2.35,0,.35c-.09-.24.07-.55-.09-.67,0,0,0,0,.06,0l-.1-.11.07,0c0-.12.12-.29,0-.39l-.15.11c0-.26-.27-.57,0-.7,0-.15-.21-.15-.28-.34.59-.11.47.47,1,.54a5.13,5.13,0,0,0-.55-1.07c-.08.1-.21-.12-.39,0,.17-.09,0-.29.15-.31A2,2,0,0,0,67,17c.13-.39.26,0,.34-.37,0-.12-.31.07-.32-.15,0,0-.32.06-.15.17-.27.11-.23-.34-.57-.26a.6.6,0,0,1,.52-.45c-.18-.17-.37,0-.5,0L66,15.38c.3-.13,0-.57.23-.86.29.17.16.33.17.56,0-.05-.07-.13-.14-.07s.22.21.07.33l.26,0c-.06.26-.37-.16-.4.15s.51.18.65.3c.11-.11,0-.18.11-.31-.26-.06-.43-.33-.23-.52,0,.14.1.36.26.21l-.13-.51c.09.08,0,.44.24.26-.07-.15.19-.32-.12-.45s-.54.09-.65-.05c.07,0,0-.28-.16-.34.1-.08.32-.06.27-.27s-.26,0-.3,0c.37-.19-.35-.57.11-.74-.17.09-.12-.11-.18-.2.22.06.44-.36.65,0-.07,0-.12,0-.21,0a.25.25,0,0,0,.21.21,1.58,1.58,0,0,1,.58-.42c.1.11-.16.14-.25.22.07.29.34-.07.51,0,.13-.13.14-.43.33-.4A.9.9,0,0,0,67,12.3c-.27-.22-.63-.62-.76-.74.13-.17-.09-.5.2-.53a1.48,1.48,0,0,0,.22.31c.19-.16-.12-.39-.29-.49.12-.06.29-.09.19-.23-.31,0-.39-.12-.5-.35-.14-.42.5-.33.17-.64l-.19.07c0-.41.07-.36.28-.79l-.25-.07c.26-.13-.08-.25,0-.4.08.05.2.06.28.11l0-.24c.08,0,.34.08.37-.09.11.09.51.34.5.12A.25.25,0,0,1,67,8.06c.18.17.25-.09.34-.17-.13-.13-.08,0-.22.08L67,7.71c.17.11.12-.16.22-.18-.19-.09-.63-.28-.87-.13l.31.07-.33.2c-.23-.43.23-.76.19-1.29.17-.15.5.06.3-.28-.09,0-.31-.14-.39,0,.06-.16.54-.32.26-.52.06-.07.41-.09.43,0a1.24,1.24,0,0,1,.18-.22c-.18-.36-.56-.29-.63-.67-.1.08-.32-.1-.31.12L66.6,5c-.15.11-.25-.2-.42,0a.34.34,0,0,0,0-.32c.11,0,.27-.08.34-.06,0-.15-.27-.06-.14-.22s.18.16.13.25c.38.07.35-.27.55-.37-.24,0-.48,0-.66-.15.34,0,.17-.34.37-.45-.15-.08-.25-.16-.36,0-.07-.09.08-.2.18-.19-.18-.12.18-.43-.08-.51.19,0,.19-.16.3-.25-.62-.16.15-.59,0-.74.1,0,.1.11.19.13a.17.17,0,0,0,.12-.26l0,0,.15-.15-.22-.08c.21-.18.74.17.89-.14,0-.34-.5-.12-.72-.3L67.46,1c-.11,0-.16,0-.17-.07L0,0A9.82,9.82,0,0,0,.22,1.13l-.06,0c0,.09,0,.23.17.21,0,0,0,0,0-.05,0,.2.32.48.55.42-.25.13.2.19,0,.31-.08.1-.07-.13-.19-.13-.36.15.16.44.09.6-.14,0-.26-.32-.45-.09.79.27.4,1.21,1,1.62l-.2.1c.31.39.13.9.22,1.4l-.21.59L1,6c.57.16.15.73.4,1.08,0,.44.08,1.09-.42,1.32-.14-.32.18-.13.13-.43L.69,8c.27.13-.13.2-.17.29.26.12.14.41.44.54a.07.07,0,0,1-.09,0L1,8.93.88,9c.06.23.35.33.39.54L.94,9.33,1,9.46H1c.08.19.57.26.47.57H1.3l.06.16c-.13,0-.07-.22-.24-.19.21.14.14.49.26.56-.4,0,.07.48-.33.54-.13-.26-.13.09-.31.06.06.13,0,.26.15.34s.29-.09.26-.17a1.33,1.33,0,0,1,.39.77c-.21.37-.11.86-.19,1.26,0,0-.07-.06-.17-.08-.05.19.15.25.18.43-.37,0-.34.56-.26.71s.18,0,.22.08L1,14.55s.11.19.24.19l0,0c.18.07,0,.31.3.26a1.45,1.45,0,0,0,.11.88c-.09-.31-.33-.15-.29-.5,0,0,.05,0,.07,0,.16-.14-.2-.09-.15-.18-.19.2,0,.43-.1.67l.26.41c-.37,0-.23-.27-.64-.19.07.29-.55.06-.32.49.17,0,.43,0,.46-.11.22-.08.32.19.4.28-.17.48.33,1.05.27,1.63a.14.14,0,0,0-.09-.08,20.24,20.24,0,0,0,.28,2.43c-.05.13-.28,0-.4,0,.08.25.54.27.44.58-.58.23.28.7-.26.87.22.08.17.21.13.36l-.17-.11c-.19.71.55,1,.35,1.63-.12,0-.27,0-.28.14s0,0,0,0l65,.91C66.65,25,67.11,25,67.1,24.76Z"/></g></g></g></g></svg>