<svg xmlns="http://www.w3.org/2000/svg" xmlns:xlink="http://www.w3.org/1999/xlink" viewBox="0 0 84.97 45.2"><defs><style>.cls-1{fill:url(#linear-gradient);}</style><linearGradient id="linear-gradient" x1="42.48" y1="45.2" x2="42.48" gradientUnits="userSpaceOnUse"><stop offset="0" stop-color="#eaebeb"/><stop offset="0.75" stop-color="#f2f3f1"/></linearGradient></defs><title>Asset 3</title><g id="Layer_2" data-name="Layer 2"><g id="Layer_1-2" data-name="Layer 1"><path class="cls-1" d="M79,0V3.36a2.35,2.35,0,1,1-1.14,0V.46l-7-.46.53,3.42A2.44,2.44,0,0,1,72.7,5.63a2.36,2.36,0,1,1-2.93-2.27V0h-6.5l-.45,3.36A2.34,2.34,0,0,1,64.6,5.63a2.36,2.36,0,1,1-4.71,0,2.34,2.34,0,0,1,1.78-2.27L62.21,0H54.72V3.36A2.34,2.34,0,0,1,56.5,5.63a2.36,2.36,0,1,1-4.71,0,2.34,2.34,0,0,1,1.78-2.27L53,0H46.62V3.36a2.36,2.36,0,1,1-1.14,0V0H39l-.48,3.36a2.35,2.35,0,0,1,1.79,2.27A2.37,2.37,0,0,1,37.7,8a2.43,2.43,0,0,1-2.09-2.66,2,2,0,0,1,1.46-2L37.38,0h-7V3.36A2.35,2.35,0,0,1,32.2,5.69a2.35,2.35,0,0,1-4.7-.06,2.34,2.34,0,0,1,1.78-2.27L28.89,0H22.72l-.39,3.36a2.36,2.36,0,1,1-1.15,0V0H13.86l.37,3.36a2.36,2.36,0,1,1-1.15,0L12.44,0H6.13V3.36A2.35,2.35,0,0,1,5.49,8,2.37,2.37,0,0,1,3.21,5.7,2.34,2.34,0,0,1,5,3.36V0H0V40A5.19,5.19,0,0,0,5.19,45.2H78.11A6.86,6.86,0,0,0,85,38.35V.56Z"/></g></g></svg>