<svg xmlns="http://www.w3.org/2000/svg" viewBox="0 0 68.13 57.45"><defs><style>.cls-1{isolation:isolate;}.cls-2{mix-blend-mode:screen;}.cls-3{fill:#f2f2ed;mix-blend-mode:overlay;}</style></defs><title>Asset 2</title><g class="cls-1"><g id="Layer_2" data-name="Layer 2"><g id="Layer_1-2" data-name="Layer 1"><g class="cls-2"><path class="cls-3" d="M54.73,57.31a.84.84,0,0,1,.35-.81c0,.26-.23.21-.29.5.22.07.16.38.42.21,0-.43.4-.74.33-1-.46-.24.12.48-.42.14.18-.07.17-.44.41-.31-.17-.1.19-.24,0-.4,0,.17-.13,0-.19,0s.21-.09.14-.16a1.46,1.46,0,0,1,.33.26c.12-.08-.12-.27,0-.4.15.24.28-.09.38,0-.12-.19-.44-.25-.37-.44.08.12.16.27.31.14.4.27-.11.48.15.62.09-.05.09-.37.27-.15l-.09-.21c.41.05.33-.25.52-.46s-.3-.44-.41-.27c0-.26-.14-.22,0-.4,0,0,.12,0,.18,0s-.2-.19-.09-.27.11.07.2,0l-.19-.25c.25,0,.28.24.3.38.21-.1,0-.38.17-.42s0,.12.08.19c.19-.3-.11-.42,0-.73-.25,0,0,.26-.18.36l-.36-.16c.06,0,.28,0,.08-.16h-.19c0-.11.37-.08.27-.32l.39,0c.24.2-.07.23.05.44.21-.07.08.44.38.29.07-.13.22-.2.14-.38l-.12,0c.19-.27.06-.6.22-.84-.08-.18-.29-.06-.35-.07s0,.41-.22.27c.05-.24.35-.42.29-.61,0,0,0,0,.05,0v-.14l0,.06c.09-.08.26-.18.22-.32h-.19c.14-.21.09-.62.41-.56.12-.1-.09-.24,0-.43.55.22.13.64.51,1a5.55,5.55,0,0,0,.12-1.2c-.12,0-.12-.21-.33-.2.18,0,.15-.25.29-.18a1.84,1.84,0,0,0,.24.77c.32-.25.2.17.49-.12,0-.11-.3-.11-.19-.31,0,0-.3-.11-.22.07-.29-.06,0-.41-.34-.53a.62.62,0,0,1,.68-.1c0-.24-.32-.17-.43-.24l0-.69c.32.06.29-.49.66-.6.15.3,0,.37-.16.56,0-.06,0-.14-.08-.13s.07.3-.12.31l.2.16c-.19.19-.22-.33-.41-.09s.33.43.38.61c.15,0,.14-.13.25-.2-.17-.19-.18-.51.1-.57-.11.11-.11.36.1.32l.17-.5c0,.12-.22.39.06.36,0-.17.33-.17.15-.45s-.5-.22-.52-.39c0,.06.13-.25,0-.38.13,0,.3.12.38-.07s-.21-.17-.24-.2c.41,0,0-.66.49-.56-.19,0,0-.15,0-.26.16.17.57-.06.56.35-.07,0-.13-.05-.17-.13a.27.27,0,0,0,.06.29,1.64,1.64,0,0,1,.72,0c0,.15-.22,0-.34.06-.1.28.32.12.44.27.17,0,.34-.28.48-.15a.88.88,0,0,0-.62-.58c-.11-.33-.19-.86-.24-1,.21-.07.2-.47.46-.33a1.56,1.56,0,0,0,0,.37c.25,0,.11-.39,0-.57.13,0,.3.09.28-.09-.27-.14-.26-.31-.22-.57.11-.42.6,0,.48-.44l-.19,0c.24-.33.26-.27.66-.51l-.17-.2c.29,0,.07-.25.25-.31s.14.15.18.24l.1-.22c0,.09.25.26.36.13,0,.14.25.57.36.38a.25.25,0,0,1-.08-.38c.06.23.26,0,.38,0,0-.18-.09,0-.22-.06l0-.28c.08.18.18-.07.28,0-.12-.19-.37-.59-.66-.59l.22.23h-.38c0-.49.6-.52.86-1,.22,0,.38.32.4-.08,0-.08-.18-.28-.33-.2.14-.1.63,0,.5-.29.09,0,.39.15.34.26a.91.91,0,0,1,.28-.09c0-.4-.32-.55-.17-.91-.12,0-.21-.25-.32-.06l.13.3c-.19,0-.1-.3-.34-.23a.38.38,0,0,0,.2-.26c.07.08.27.09.32.13,0-.14-.21-.19,0-.25.23.1.06.23,0,.28.28.26.44,0,.66,0-.17-.16-.41-.24-.47-.48.31.15.33-.2.55-.17-.08-.16-.12-.28-.27-.24s.17-.12.25,0c-.09-.2.39-.27.21-.48.14.12.24,0,.39,0-.43-.47.45-.41.36-.65.07.06,0,.14.09.21a.16.16,0,0,0,.23-.15v0l.21,0-.14-.19c.27,0,.53.55.82.37s-.35-.38-.44-.65l.3,0c-.09-.06-.11-.11-.1-.15L11.94,0a7.47,7.47,0,0,0-.43,1.07.19.19,0,0,0,0-.06c0,.08-.14.19,0,.26,0,0,0,0,.05,0-.07.19,0,.58.23.66-.28,0,.07.26-.19.24s0-.15-.09-.22c-.38-.06-.1.46-.25.56-.1-.1,0-.41-.32-.32.51.65-.33,1.23,0,1.92l-.22,0c.05.5-.38.83-.58,1.3l-.5.38-.17-.16c.39.44-.27.69-.25,1.12-.22.39-.52,1-1.07.88.06-.34.22,0,.34-.28l-.3-.24c.16.25-.22.09-.3.15.15.24-.11.42.07.7a.12.12,0,0,1-.07-.07L7.9,8,7.8,8c-.07.22.11.46,0,.66l-.19-.31,0,.14,0,0c0,.19.34.52.08.72l-.11-.06,0,.16c-.11-.07.07-.22-.1-.3.11.24-.15.5-.08.62-.33-.23-.2.44-.57.27,0-.29-.16,0-.29-.12,0,.15-.14.22-.06.37s.29.09.31,0a1.43,1.43,0,0,1-.09.86c-.39.19-.56.66-.85.95,0,0,0-.09-.1-.15-.15.13,0,.28-.08.45-.33-.18-.6.29-.61.46s.17.07.15.18l-.33-.14c0,.06,0,.22.09.29h0c.11.16-.16.27.1.38a1.5,1.5,0,0,0-.38.81c.09-.32-.19-.32,0-.58,0,0,0,0,0,.06.21,0-.11-.19,0-.24-.28.07-.21.39-.45.51v.49c-.31-.21,0-.35-.43-.51-.1.28-.5-.25-.54.24.14.1.36.23.45.16s.16.33.18.45c-.41.3-.29,1.06-.66,1.51a.11.11,0,0,0,0-.11,22.14,22.14,0,0,0-1.08,2.19c-.11.07-.26-.12-.36-.18-.07.25.3.52.05.73-.61-.13-.15.73-.69.59.14.18,0,.26-.09.36L.91,19.7c-.55.49-.07,1.12-.59,1.56-.13,0-.24-.14-.32,0v.05L54,57.45C54.2,57.31,54.61,57.51,54.73,57.31Z"/></g></g></g></g></svg>